<svg width="48" height="48" version="1.1" xmlns="http://www.w3.org/2000/svg" desc="Created with imagetracer.js version 1.2.6" ><path fill="rgb(100,192,104)" stroke="rgb(100,192,104)" stroke-width="1" opacity="0.5137254901960784" d="M 31.5 2 L 35 3.5 L 33.5 4 L 31.5 2 Z " /><path fill="rgb(100,192,104)" stroke="rgb(100,192,104)" stroke-width="1" opacity="0.5137254901960784" d="M 39.5 5 L 45 7.5 L 43.5 7 Q 38.7 7.1 39.5 5 Z " /><path fill="rgb(14,111,121)" stroke="rgb(14,111,121)" stroke-width="1" opacity="0.011764705882352941" d="M 1.5 17 L 2.5 19 L 1.5 17 Z " /><path fill="rgb(14,111,121)" stroke="rgb(14,111,121)" stroke-width="1" opacity="0.011764705882352941" d="M 3.5 38 L 4.5 40 L 3.5 38 Z " /><path fill="rgb(76,154,78)" stroke="rgb(76,154,78)" stroke-width="1" opacity="0.8705882352941177" d="M 25.5 1 L 28 1.5 L 2.5 11 L 2.5 10 L 25.5 1 Z " /><path fill="rgb(76,154,78)" stroke="rgb(76,154,78)" stroke-width="1" opacity="0.8705882352941177" d="M 6.5 13 L 12 15.5 L 10.5 16 L 6.5 14 L 6.5 13 Z " /><path fill="rgb(76,154,78)" stroke="rgb(76,154,78)" stroke-width="1" opacity="0.8705882352941177" d="M 5.5 18 L 6.5 20 L 5.5 18 Z " /><path fill="rgb(76,154,78)" stroke="rgb(76,154,78)" stroke-width="1" opacity="0.8705882352941177" d="M 8.5 20 L 14 22.5 L 12.5 23 L 8.5 21 L 8.5 20 Z " /><path fill="rgb(101,191,105)" stroke="rgb(101,191,105)" stroke-width="1" opacity="1" d="M 28.5 3 L 32.5 3 L 44 7 Q 45.3 10 41.5 9 L 37 11.5 L 37.5 13 L 35.5 12 L 28 15.5 L 28.5 17 L 26.5 16 L 18.5 20 L 17.5 18 L 16 18.5 L 15.5 17 L 14 17.5 L 13.5 16 L 12 16.5 Q 12.8 14.3 10.5 15 L 6 12.5 L 28.5 3 Z " /><path fill="rgb(49,108,58)" stroke="rgb(49,108,58)" stroke-width="1" opacity="0.9647058823529412" d="M 28.5 1 L 29.5 3 L 24.5 4 L 4.5 13 L 3 12.5 Q 2 18.5 6 19.5 L 6 23.5 L 5 23.5 Q 6.9 18.1 3.5 19 Q -0.5 17.3 1 11 L 7.5 10 L 28.5 1 Z " /><path fill="rgb(49,108,58)" stroke="rgb(49,108,58)" stroke-width="1" opacity="0.9647058823529412" d="M 44.5 8 L 43.5 10 L 42 9.5 L 44.5 8 Z " /><path fill="rgb(49,108,58)" stroke="rgb(49,108,58)" stroke-width="1" opacity="0.9647058823529412" d="M 35.5 12 L 37 12.5 L 31.5 15 L 31.5 14 L 35.5 12 Z " /><path fill="rgb(49,108,58)" stroke="rgb(49,108,58)" stroke-width="1" opacity="0.9647058823529412" d="M 44.5 13 L 45 14.5 L 20.5 26 L 20.5 25 L 44 15 L 44.5 13 Z " /><path fill="rgb(49,108,58)" stroke="rgb(49,108,58)" stroke-width="1" opacity="0.9647058823529412" d="M 24.5 17 L 26 17.5 L 22.5 19 L 22.5 18 L 24.5 17 Z " /><path fill="rgb(49,108,58)" stroke="rgb(49,108,58)" stroke-width="1" opacity="0.9647058823529412" d="M 1.5 26 L 2 30.5 L 1 30.5 L 1.5 26 Z " /><path fill="rgb(49,108,58)" stroke="rgb(49,108,58)" stroke-width="1" opacity="0.9647058823529412" d="M 4.5 33 L 5 37.5 L 4 37.5 L 4.5 33 Z " /><path fill="rgb(187,187,173)" stroke="rgb(187,187,173)" stroke-width="1" opacity="0.9882352941176471" d="M 43.5 10 L 44 12.5 L 41.5 15 L 19.5 25 L 19 20 L 22.5 20 L 43.5 10 Z " /><path fill="rgb(187,187,173)" stroke="rgb(187,187,173)" stroke-width="1" opacity="0.9882352941176471" d="M 46.5 17 L 47 19.5 L 44.5 22 L 22.5 32 L 22 27 L 25.5 27 L 46.5 17 Z " /><path fill="rgb(187,187,173)" stroke="rgb(187,187,173)" stroke-width="1" opacity="0.9882352941176471" d="M 41.5 25 Q 43.8 24.3 43 26.5 L 40.5 29 L 18.5 39 L 18 34 L 27.5 32 L 41.5 25 Z " /><path fill="rgb(187,187,173)" stroke="rgb(187,187,173)" stroke-width="1" opacity="0.9882352941176471" d="M 45.5 31 L 46 33.5 L 43.5 36 L 21.5 46 L 21 41 L 24.5 41 L 45.5 31 Z " /><path fill="rgb(187,187,173)" stroke="rgb(187,187,173)" stroke-width="1" opacity="0.9882352941176471" d="M 7.5 33 L 6.5 35 L 7.5 33 Z " /><path fill="rgb(187,187,173)" stroke="rgb(187,187,173)" stroke-width="1" opacity="0.9882352941176471" d="M 9.5 34 L 8.5 36 L 9.5 34 Z " /><path fill="rgb(29,109,177)" stroke="rgb(29,109,177)" stroke-width="1" opacity="0.8313725490196079" d="M 45.5 13 L 48 14 Q 49.8 18.5 44.5 17 L 22 27 Q 20.9 24.3 23.5 25 L 45 14.5 L 45.5 13 Z " /><path fill="rgb(29,109,177)" stroke="rgb(29,109,177)" stroke-width="1" opacity="0.8313725490196079" d="M 4.5 19 L 6 24.5 L 4 23.5 L 4.5 19 Z " /><path fill="rgb(29,109,177)" stroke="rgb(29,109,177)" stroke-width="1" opacity="0.8313725490196079" d="M 47.5 20 L 48 21.5 L 43.5 24 L 43.5 23 L 47 22 L 47.5 20 Z " /><path fill="rgb(29,109,177)" stroke="rgb(29,109,177)" stroke-width="1" opacity="0.8313725490196079" d="M 44.5 27 L 47 28 Q 48.8 32.5 43.5 31 L 21 41 Q 19.8 38 23.5 39 L 45 29.5 L 44.5 27 Z " /><path fill="rgb(29,109,177)" stroke="rgb(29,109,177)" stroke-width="1" opacity="0.8313725490196079" d="M 3.5 33 L 4 38 L 9 40.5 L 7.5 41 L 3 37.5 L 3.5 33 Z " /><path fill="rgb(29,109,177)" stroke="rgb(29,109,177)" stroke-width="1" opacity="0.8313725490196079" d="M 46.5 34 L 47 35.5 L 38.5 40 L 38.5 39 L 46 36 L 46.5 34 Z " /><path fill="rgb(29,109,177)" stroke="rgb(29,109,177)" stroke-width="1" opacity="0.8313725490196079" d="M 35.5 40 L 37 40.5 L 29.5 44 L 29.5 43 L 35.5 40 Z " /><path fill="rgb(29,109,177)" stroke="rgb(29,109,177)" stroke-width="1" opacity="0.8313725490196079" d="M 26.5 44 L 28 44.5 Q 26 47.5 20.5 47 L 18 45.5 L 19.5 45 L 23.5 46 L 26.5 44 Z " /><path fill="rgb(0,0,0)" stroke="rgb(0,0,0)" stroke-width="1" opacity="0" d="M 0 0 L 26 0.5 L 1 10.5 Q -0.7 17.3 2.5 19 L 4 19 L 4 23 L 0.5 24 L 0 0 Z " /><path fill="rgb(0,0,0)" stroke="rgb(0,0,0)" stroke-width="1" opacity="0" d="M 27.5 0 L 48 0 L 48 13.5 L 46.5 13 Q 42.8 14.3 44 10.5 L 45 7.5 L 27.5 1 L 27.5 0 Z " /><path fill="rgb(0,0,0)" stroke="rgb(0,0,0)" stroke-width="1" opacity="0" d="M 47.5 17 L 48 19.5 L 47 19.5 L 47.5 17 Z " /><path fill="rgb(0,0,0)" stroke="rgb(0,0,0)" stroke-width="1" opacity="0" d="M 46.5 23 L 48 23.5 L 48 48 L 0.5 48 L 0 47.5 L 0 32.5 L 1.5 33 Q 4.3 32.4 3 38.5 L 19.5 47 L 24.5 47 L 47 37 L 46 31.5 L 47 28.5 L 43 27 L 44.5 24 L 46.5 23 Z " /><path fill="rgb(225,127,35)" stroke="rgb(225,127,35)" stroke-width="1" opacity="0.9490196078431372" d="M 1.5 23 L 21 32 Q 22.3 35.3 17.5 34 L 1.5 26 L 1 31 L 19.5 39 L 43.5 28 L 42.5 30 L 22.5 39 L 17.5 40 L 0 31.5 Q -1.7 24.8 1.5 23 Z " /><path fill="rgb(223,221,206)" stroke="rgb(223,221,206)" stroke-width="1" opacity="1" d="M 3 14 L 19 20 L 18.5 24 L 3 15.5 L 3 14 Z " /><path fill="rgb(223,221,206)" stroke="rgb(223,221,206)" stroke-width="1" opacity="1" d="M 6 21 L 22 27 L 21.5 31 L 6 22.5 L 6 21 Z " /><path fill="rgb(223,221,206)" stroke="rgb(223,221,206)" stroke-width="1" opacity="1" d="M 2 28 L 18 34 L 17.5 38 L 2 29.5 L 2 28 Z " /><path fill="rgb(223,221,206)" stroke="rgb(223,221,206)" stroke-width="1" opacity="1" d="M 5 35 L 21 41 L 20.5 45 L 5 36.5 L 5 35 Z " /><path fill="rgb(78,133,178)" stroke="rgb(78,133,178)" stroke-width="1" opacity="0.996078431372549" d="M 6.5 24 L 23 32.5 L 21.5 32 L 7.5 26 L 6.5 24 Z " /><path fill="rgb(78,133,178)" stroke="rgb(78,133,178)" stroke-width="1" opacity="0.996078431372549" d="M 38.5 25 L 37.5 27 L 38.5 25 Z " /><path fill="rgb(78,133,178)" stroke="rgb(78,133,178)" stroke-width="1" opacity="0.996078431372549" d="M 29.5 29 L 28.5 31 L 29.5 29 Z " /><path fill="rgb(78,133,178)" stroke="rgb(78,133,178)" stroke-width="1" opacity="0.996078431372549" d="M 13.5 42 L 19 44.5 L 17.5 45 L 13.5 43 L 13.5 42 Z " /><path fill="rgb(154,164,153)" stroke="rgb(154,164,153)" stroke-width="1" opacity="0.996078431372549" d="M 43.5 13 L 42.5 15 L 43.5 13 Z " /><path fill="rgb(154,164,153)" stroke="rgb(154,164,153)" stroke-width="1" opacity="0.996078431372549" d="M 8.5 19 L 7.5 21 L 8.5 19 Z " /><path fill="rgb(154,164,153)" stroke="rgb(154,164,153)" stroke-width="1" opacity="0.996078431372549" d="M 46.5 20 L 45.5 22 L 46.5 20 Z " /><path fill="rgb(154,164,153)" stroke="rgb(154,164,153)" stroke-width="1" opacity="0.996078431372549" d="M 11.5 26 L 10.5 28 L 11.5 26 Z " /><path fill="rgb(154,164,153)" stroke="rgb(154,164,153)" stroke-width="1" opacity="0.996078431372549" d="M 13.5 27 L 12.5 29 L 13.5 27 Z " /><path fill="rgb(154,164,153)" stroke="rgb(154,164,153)" stroke-width="1" opacity="0.996078431372549" d="M 42.5 27 L 41.5 29 L 42.5 27 Z " /><path fill="rgb(154,164,153)" stroke="rgb(154,164,153)" stroke-width="1" opacity="0.996078431372549" d="M 45.5 34 L 44.5 36 L 45.5 34 Z " /></svg>